# xmcd
#
# Track frame offsets: 
#        150
#        10957
#        24956
#        37301
#        50873
#        60299
#        71590
#        86425
#        104178
#        116549
#
# Disc length: 1743 seconds
#
# Revision: 0
# Processed by: cddbd v1.5.2PL0 Copyright (c) Steve Scherf et al.
# Submitted via: ExactAudioCopy v0.95b4
#
DISCID=8706cd0a
DTITLE=Crispy Jones - Almost Home - Split CD
DYEAR=2011
DGENRE=Rock and Roll
TTITLE0=Almost Home
TTITLE1=Suicide Sue
TTITLE2=On The Run
TTITLE3=Train Of Life
TTITLE4=Rescue Me
TTITLE5=Crack in the mud
TTITLE6=Johnny Ska
TTITLE7=Truck Driver
TTITLE8=Legendary shakin' of the shack
TTITLE9=Monsters R Go
EXTD=
EXTT0=
EXTT1=
EXTT2=
EXTT3=
EXTT4=
EXTT5=
EXTT6=
EXTT7=
EXTT8=
EXTT9=
PLAYORDER=
